<?xml version="1.0" encoding="UTF-8"?>
<svg version="1.1" xmlns="http://www.w3.org/2000/svg" width="512" height="512">
<path d="M0 0 C1.01790619 0.00215515 2.03581238 0.0043103 3.08456421 0.00653076 C17.69363523 0.05620146 32.02575853 0.30709809 46.375 3.3125 C47.34985352 3.51117676 48.32470703 3.70985352 49.32910156 3.91455078 C97.7109774 14.03517194 141.69928269 35.9516877 177.375 70.3125 C178.3640332 71.26068604 178.3640332 71.26068604 179.37304688 72.22802734 C188.86130305 81.37247479 197.6012044 90.66984009 205.375 101.3125 C206.23306152 102.46355017 207.09113451 103.61459177 207.94921875 104.765625 C213.98736829 112.95680614 219.34595521 121.47054105 224.375 130.3125 C224.73948242 130.94430176 225.10396484 131.57610352 225.47949219 132.22705078 C247.08534998 169.97532572 256.85198095 212.74189997 256.6875 255.9375 C256.68534485 256.95540619 256.6831897 257.97331238 256.68096924 259.02206421 C256.63129854 273.63113523 256.38040191 287.96325853 253.375 302.3125 C253.07698486 303.77478027 253.07698486 303.77478027 252.77294922 305.26660156 C242.65232806 353.6484774 220.7358123 397.63678269 186.375 433.3125 C185.74287598 433.97185547 185.11075195 434.63121094 184.45947266 435.31054688 C175.31502521 444.79880305 166.01765991 453.5387044 155.375 461.3125 C154.22394983 462.17056152 153.07290823 463.02863451 151.921875 463.88671875 C143.73224019 469.92427396 135.22961724 475.30707302 126.375 480.3125 C125.66778809 480.7146875 124.96057617 481.116875 124.23193359 481.53125 C101.09654164 494.5566741 75.92537591 503.30551461 49.9375 508.625 C49.21860596 508.77235596 48.49971191 508.91971191 47.7590332 509.0715332 C33.08339502 511.86090125 18.55831162 512.66142619 3.64770508 512.62817383 C0.70811513 512.6250221 -2.2304558 512.64854926 -5.16992188 512.67382812 C-18.54306192 512.71848737 -31.43916711 511.51301542 -44.625 509.3125 C-46.33055054 509.03031616 -46.33055054 509.03031616 -48.07055664 508.74243164 C-91.33802759 500.97044532 -132.38793216 480.98345309 -165.625 452.3125 C-166.37007813 451.67828125 -167.11515625 451.0440625 -167.8828125 450.390625 C-181.38779833 438.57948485 -194.05918743 425.82889772 -204.625 411.3125 C-205.48149066 410.16255169 -206.33826433 409.01281411 -207.1953125 407.86328125 C-213.23534209 399.67315742 -218.61867614 391.16870382 -223.625 382.3125 C-224.0271875 381.60528809 -224.429375 380.89807617 -224.84375 380.16943359 C-237.8691741 357.03404164 -246.61801461 331.86287591 -251.9375 305.875 C-252.08485596 305.15610596 -252.23221191 304.43721191 -252.3840332 303.6965332 C-255.35789088 288.05024391 -255.99800362 272.57681954 -255.9375 256.6875 C-255.93534485 255.66959381 -255.9331897 254.65168762 -255.93096924 253.60293579 C-255.88129854 238.99386477 -255.63040191 224.66174147 -252.625 210.3125 C-252.42632324 209.33764648 -252.22764648 208.36279297 -252.02294922 207.35839844 C-241.90232806 158.9765226 -219.9858123 114.98821731 -185.625 79.3125 C-184.99287598 78.65314453 -184.36075195 77.99378906 -183.70947266 77.31445312 C-174.56502521 67.82619695 -165.26765991 59.0862956 -154.625 51.3125 C-153.47394983 50.45443848 -152.32290823 49.59636549 -151.171875 48.73828125 C-142.98224019 42.70072604 -134.47961724 37.31792698 -125.625 32.3125 C-124.91778809 31.9103125 -124.21057617 31.508125 -123.48193359 31.09375 C-100.34654164 18.0683259 -75.17537591 9.31948539 -49.1875 4 C-48.46860596 3.85264404 -47.74971191 3.70528809 -47.0090332 3.5534668 C-31.36274391 0.57960912 -15.88931954 -0.06050362 0 0 Z " fill="#F2CA4B" transform="translate(255.625,-0.3125)"/>
<path d="M0 0 C7.07290114 5.36051455 12.72886839 15.12828748 14.109375 23.8125 C14.400035 27.51214089 14.54940899 31.21881725 14.71484375 34.92578125 C14.55531498 38.67909928 14.55531498 38.67909928 16.109375 41.8125 C18.35831454 41.92073773 20.60875075 41.99819645 22.859375 42.0625 C36.50395771 42.74937903 50.14276917 48.84553587 59.51953125 58.90625 C70.80187426 72.43397332 73.59910317 86.6135064 72.109375 103.8125 C69.85103901 117.04813709 62.2992444 128.27504185 52.109375 136.8125 C40.91859165 144.68352944 30.52209446 146.97852938 17.0234375 146.91015625 C15.96651703 146.9087413 14.90959656 146.90732635 13.82064819 146.90586853 C10.45852784 146.9002894 7.09647509 146.88774069 3.734375 146.875 C1.44921971 146.86998231 -0.83593662 146.86541987 -3.12109375 146.86132812 C-8.7109604 146.85032679 -14.30078787 146.83360944 -19.890625 146.8125 C-14.34899818 132.87437954 -14.34899818 132.87437954 -8.890625 129.8125 C-3.92462955 129.00091446 1.07438517 129.37845969 6.08496094 129.54418945 C11.49848534 129.54210669 15.13944959 129.48530521 19.2109375 125.67578125 C20.91062216 123.77003743 22.44854309 121.79741893 23.98754883 119.76074219 C27.65046722 114.94186951 27.65046722 114.94186951 30.89453125 114.02734375 C33.546875 114.1875 33.546875 114.1875 35.953125 114.56640625 C38.41879299 115.04426644 38.41879299 115.04426644 41.546875 113.125 C45.35674551 109.68682417 46.93178962 107.46996355 47.484375 102.3125 C46.92601694 97.10115814 45.35911404 94.88785685 41.421875 91.5 C37.49900678 89.5015577 34.37473416 88.75436282 30.109375 89.8125 C27.11423332 91.33887028 25.04972877 93.06225943 23.109375 95.8125 C21.80470718 99.9476336 21.77461976 103.54955977 22.8828125 107.73046875 C23.109375 110.8125 23.109375 110.8125 21.2734375 113.76953125 C20.01660156 115.18298828 20.01660156 115.18298828 18.734375 116.625 C17.90164063 117.58019531 17.06890625 118.53539062 16.2109375 119.51953125 C14.109375 121.8125 14.109375 121.8125 13.109375 122.8125 C11.43229581 122.83623225 9.75432378 122.80147888 8.078125 122.7421875 C-3.57001896 122.17845027 -3.57001896 122.17845027 -14.203125 125.9375 C-16.46491639 128.78089489 -18.17220355 131.61432674 -19.890625 134.8125 C-21.36607302 136.87197953 -22.86547193 138.91455391 -24.390625 140.9375 C-25.0403125 141.84757813 -25.69 142.75765625 -26.359375 143.6953125 C-27.890625 145.8125 -27.890625 145.8125 -28.890625 146.8125 C-30.3793436 146.89919432 -31.87207 146.91953494 -33.36328125 146.91015625 C-34.26240234 146.90693359 -35.16152344 146.90371094 -36.08789062 146.90039062 C-37.03341797 146.89201172 -37.97894531 146.88363281 -38.953125 146.875 C-40.3772168 146.86823242 -40.3772168 146.86823242 -41.83007812 146.86132812 C-44.18365565 146.8495011 -46.53710977 146.83302025 -48.890625 146.8125 C-48.99961089 144.77204189 -49.07665831 142.72986517 -49.140625 140.6875 C-49.18703125 139.55054688 -49.2334375 138.41359375 -49.28125 137.2421875 C-48.890625 133.8125 -48.890625 133.8125 -46.8984375 131.171875 C-43.38279958 125.28967926 -44.456084 118.45481257 -44.578125 111.7578125 C-44.5562086 108.6749054 -44.49927408 105.83591688 -43.890625 102.8125 C-40.96875 100.17578125 -40.96875 100.17578125 -37.890625 98.8125 C-34.7151644 95.10779597 -34.37003931 91.69033318 -34.53515625 86.96484375 C-35.07643476 83.68743209 -36.47776297 82.02429019 -38.890625 79.8125 C-43.12405493 77.31495347 -47.07807683 76.971553 -51.890625 77.8125 C-54.96124468 79.52618609 -57.29513226 81.62151452 -58.890625 84.8125 C-59.51623338 92.65148247 -59.51623338 92.65148247 -56.890625 99.8125 C-54.44773872 101.12318333 -54.44773872 101.12318333 -51.890625 101.8125 C-51.230625 102.1425 -50.570625 102.4725 -49.890625 102.8125 C-49.74390755 106.31204984 -49.65608912 109.81079703 -49.578125 113.3125 C-49.5152832 114.78589844 -49.5152832 114.78589844 -49.45117188 116.2890625 C-49.34797322 122.48098177 -50.10824761 125.95286813 -53.73510742 130.96289062 C-55.60443896 133.95508495 -55.60325682 136.85040293 -55.703125 140.3125 C-55.75082031 141.5396875 -55.79851562 142.766875 -55.84765625 144.03125 C-55.86183594 144.9490625 -55.87601563 145.866875 -55.890625 146.8125 C-59.850625 146.8125 -63.810625 146.8125 -67.890625 146.8125 C-67.890625 154.7325 -67.890625 162.6525 -67.890625 170.8125 C-64.920625 170.8125 -61.950625 170.8125 -58.890625 170.8125 C-57.20960844 171.80998264 -55.5290906 172.81049447 -53.89160156 173.87792969 C-49.50937281 175.92468075 -44.50922934 175.46624912 -39.765625 175.4375 C-38.69441406 175.46972656 -37.62320313 175.50195312 -36.51953125 175.53515625 C-30.97394725 175.69548232 -30.97394725 175.69548232 -26.10644531 173.46777344 C-24.58353037 171.67430432 -24.58353037 171.67430432 -22.890625 168.8125 C-19.81867592 167.27652546 -17.28818207 167.5859962 -13.890625 167.8125 C-9.90996405 169.38974302 -8.28395226 170.22250911 -5.890625 173.8125 C-5.19141615 178.60939791 -5.17580415 182.58709282 -7.640625 186.8125 C-10.76051041 189.58573148 -12.61018287 190.64548581 -16.765625 191.1875 C-20.76330818 190.70777802 -22.82237469 189.38126771 -25.890625 186.8125 C-26.55859375 184.671875 -26.55859375 184.671875 -26.890625 182.8125 C-27.66664063 182.83868408 -28.44265625 182.86486816 -29.2421875 182.8918457 C-32.791457 182.99640727 -36.34040151 183.06101554 -39.890625 183.125 C-41.72173828 183.1878418 -41.72173828 183.1878418 -43.58984375 183.25195312 C-50.17080285 183.340885 -54.83967193 183.27673483 -60.046875 178.99291992 C-62.38451609 177.3258578 -62.38451609 177.3258578 -67.890625 176.8125 C-67.890625 185.3925 -67.890625 193.9725 -67.890625 202.8125 C-64.56484375 202.72548828 -64.56484375 202.72548828 -61.171875 202.63671875 C-59.00068734 202.59761403 -56.82954039 202.56731803 -54.65820312 202.5378418 C-53.16062577 202.51284993 -51.66316849 202.47884373 -50.16601562 202.43530273 C-35.84068284 202.02941831 -35.84068284 202.02941831 -29.90820312 206.65698242 C-25.45963006 209.20479175 -19.88512945 208.59925513 -14.890625 208.625 C-13.73433594 208.65013672 -12.57804688 208.67527344 -11.38671875 208.70117188 C-8.55434472 208.759692 -5.72350381 208.79623009 -2.890625 208.8125 C-2.68759766 207.89210938 -2.68759766 207.89210938 -2.48046875 206.953125 C-1.60184311 203.76447035 -0.64236437 202.69173664 2.109375 200.8125 C6.25995757 200.03649057 10.27080043 199.81399557 14.05859375 201.87109375 C16.208667 203.62551188 17.86294974 205.31964948 19.109375 207.8125 C19.65739611 213.51191954 18.71899302 216.37782643 15.109375 220.8125 C11.08165525 223.4976465 7.84137785 223.49324427 3.109375 222.8125 C0.08810345 221.05009159 -1.52423585 220.06738284 -2.515625 216.671875 C-2.70125 215.75148438 -2.70125 215.75148438 -2.890625 214.8125 C-3.67187744 214.83344727 -4.45312988 214.85439453 -5.25805664 214.87597656 C-8.82294674 214.95950183 -12.38763041 215.01127689 -15.953125 215.0625 C-17.18224609 215.09601563 -18.41136719 215.12953125 -19.67773438 215.1640625 C-29.82850299 215.27350475 -29.82850299 215.27350475 -34.82250977 211.74316406 C-40.13475081 209.35262424 -47.07322581 210.1183161 -52.828125 210.0625 C-54.28974846 210.03430773 -55.75133946 210.00437579 -57.21289062 209.97265625 C-60.77198345 209.89917461 -64.33094276 209.84936485 -67.890625 209.8125 C-67.890625 213.4425 -67.890625 217.0725 -67.890625 220.8125 C-66.611875 220.626875 -65.333125 220.44125 -64.015625 220.25 C-59.31181458 220.23518485 -57.16656673 221.77419481 -53.703125 224.875 C-52.07546207 226.49760021 -50.46954783 228.14243391 -48.890625 229.8125 C-48.26542969 230.41964844 -47.64023437 231.02679688 -46.99609375 231.65234375 C-43.93535078 234.81734561 -42.76934067 236.7211184 -42.453125 241.125 C-41.71656742 245.57503538 -39.41444322 247.42511424 -35.95458984 250.00805664 C-29.64362871 254.31826296 -25.04764063 256.74756725 -17.20703125 255.90625 C-13.3859001 255.75160051 -11.67276995 257.32321242 -8.890625 259.8125 C-7.04199812 263.50975375 -7.41475406 267.77711442 -7.890625 271.8125 C-9.68709354 274.74673195 -10.8347321 276.28455355 -13.890625 277.8125 C-19.06120007 278.45310222 -22.69999043 278.71155059 -26.953125 275.5 C-29.55689966 271.88831257 -29.95310267 270.42428628 -29.49609375 265.94921875 C-29.46472986 263.36140154 -29.49338947 262.2541434 -31.24462891 260.30712891 C-33.17502376 258.94276246 -35.13357527 257.7671482 -37.203125 256.625 C-43.55547512 252.95356701 -46.83573568 250.47358646 -48.953125 243.125 C-51.37455717 236.85564839 -55.06880323 232.21078817 -60.890625 228.8125 C-67.80052346 226.91828653 -76.3006437 226.51004129 -82.84130859 229.79101562 C-87.37718891 232.94304619 -90.95785794 237.04842879 -92.7421875 242.3359375 C-93.0015679 243.8261033 -93.22615567 245.32288065 -93.41015625 246.82421875 C-94.36375833 250.77042575 -97.63765185 252.68775874 -100.890625 254.8125 C-101.8496875 255.34230469 -102.80875 255.87210937 -103.796875 256.41796875 C-106.72541747 258.06716083 -109.36380645 259.59196249 -111.890625 261.8125 C-112.55658234 264.34139684 -112.42778803 266.15046449 -112.09375 268.73046875 C-111.890625 270.8125 -111.890625 270.8125 -113.140625 273.75 C-115.45428631 276.47681511 -117.53164659 277.6034264 -121.07421875 278.1484375 C-125.17645952 278.21953353 -127.32424345 278.16648847 -130.890625 275.9375 C-134.37018967 272.24046253 -134.27523363 269.21639034 -134.25390625 264.296875 C-133.70996098 260.5769912 -131.80638892 259.01710199 -128.890625 256.8125 C-128.560625 256.4825 -128.230625 256.1525 -127.890625 255.8125 C-127.16617188 255.89628906 -126.44171875 255.98007812 -125.6953125 256.06640625 C-118.40530909 256.83428661 -113.77132746 255.25492524 -107.765625 251.375 C-107.1144873 250.97418213 -106.46334961 250.57336426 -105.79248047 250.16040039 C-103.1114643 248.30041442 -101.22917829 246.93690489 -100.26660156 243.73999023 C-100.01753853 242.20349592 -99.77136166 240.66653144 -99.52783203 239.12915039 C-98.31114467 234.70572266 -95.09247053 231.88553512 -91.890625 228.75 C-91.26800781 228.07517578 -90.64539063 227.40035156 -90.00390625 226.70507812 C-86.24482285 222.94218226 -83.80268471 221.38749379 -78.390625 221.37890625 C-76.905625 221.52199219 -75.420625 221.66507813 -73.890625 221.8125 C-73.890625 217.8525 -73.890625 213.8925 -73.890625 209.8125 C-78.19638246 209.85683409 -82.50075097 209.92685207 -86.80566406 210.02001953 C-88.26811205 210.0481311 -89.7307092 210.06939431 -91.19335938 210.08349609 C-93.30415669 210.10506419 -95.41317929 210.15177656 -97.5234375 210.203125 C-98.79074707 210.22407227 -100.05805664 210.24501953 -101.36376953 210.26660156 C-105.46367852 210.90119913 -107.48392847 212.52562847 -110.890625 214.8125 C-114.14208984 215.26660156 -114.14208984 215.26660156 -117.6015625 215.203125 C-118.84550781 215.19023437 -120.08945313 215.17734375 -121.37109375 215.1640625 C-123.29888672 215.11378906 -123.29888672 215.11378906 -125.265625 215.0625 C-126.57402344 215.04445313 -127.88242188 215.02640625 -129.23046875 215.0078125 C-132.45127189 214.96079348 -135.67056974 214.89508181 -138.890625 214.8125 C-139.01566406 215.42609375 -139.14070313 216.0396875 -139.26953125 216.671875 C-140.26634064 220.10741932 -141.8098792 221.05207383 -144.890625 222.8125 C-148.34160304 223.43016274 -151.44489725 223.48014511 -154.890625 222.8125 C-158.23687524 220.28573961 -159.57040347 218.77316458 -160.890625 214.8125 C-161.55673933 208.92849006 -161.55673933 208.92849006 -159.84375 206.05859375 C-157.49871139 203.19626722 -155.68062231 201.06309962 -151.9375 200.5390625 C-147.66743183 200.35024996 -144.76136679 200.39643313 -141.328125 203.125 C-138.890625 205.8125 -138.890625 205.8125 -138.890625 208.8125 C-134.88938694 208.78951992 -130.89094361 208.71196345 -126.890625 208.625 C-125.20259766 208.61629883 -125.20259766 208.61629883 -123.48046875 208.60742188 C-116.28298183 208.50533652 -116.28298183 208.50533652 -110.078125 205.28125 C-104.3285315 201.06946138 -96.68863934 202.29561223 -89.890625 202.5 C-88.43363212 202.52512057 -86.97659741 202.5479271 -85.51953125 202.56835938 C-81.9746714 202.61876978 -78.43569919 202.7166296 -74.890625 202.8125 C-74.890625 194.2325 -74.890625 185.6525 -74.890625 176.8125 C-81.48553966 178.19500718 -81.48553966 178.19500718 -84.4609375 180.921875 C-89.96906537 183.95824617 -95.59535388 183.22961151 -101.765625 183.0625 C-103.02632813 183.04445313 -104.28703125 183.02640625 -105.5859375 183.0078125 C-108.68828114 182.96080729 -111.7890588 182.89510676 -114.890625 182.8125 C-115.18710938 183.60011719 -115.48359375 184.38773438 -115.7890625 185.19921875 C-117.102298 188.31466041 -117.86869248 189.30153374 -120.890625 190.8125 C-125.87432939 191.54780065 -128.73559249 191.40650556 -132.828125 188.375 C-136.05881022 185.24064255 -136.9986628 182.45436735 -137.1640625 177.99609375 C-136.62969412 173.72878055 -134.44139038 171.03095851 -131.140625 168.4375 C-126.93827669 167.27018102 -122.93557627 166.69079677 -119.0390625 168.828125 C-117.390625 170.125 -117.390625 170.125 -114.890625 172.8125 C-114.890625 173.8025 -114.890625 174.7925 -114.890625 175.8125 C-110.88938694 175.78951992 -106.89094361 175.71196345 -102.890625 175.625 C-101.20259766 175.61629883 -101.20259766 175.61629883 -99.48046875 175.60742188 C-93.14359126 175.44066194 -88.8149952 175.03188013 -83.8671875 170.87768555 C-81.890625 169.8125 -81.890625 169.8125 -74.890625 169.8125 C-74.890625 162.2225 -74.890625 154.6325 -74.890625 146.8125 C-78.520625 146.8125 -82.150625 146.8125 -85.890625 146.8125 C-85.90480469 145.966875 -85.91898438 145.12125 -85.93359375 144.25 C-86.00513672 142.5484375 -86.00513672 142.5484375 -86.078125 140.8125 C-86.11292969 139.69875 -86.14773437 138.585 -86.18359375 137.4375 C-86.8636645 133.95072844 -87.41794411 132.85579136 -89.3984375 130.109375 C-92.82734881 124.99957651 -92.66597446 120.0591807 -92.578125 114.0625 C-92.60583984 113.03511719 -92.63355469 112.00773437 -92.66210938 110.94921875 C-92.65281691 108.09829068 -92.56128957 105.58417692 -91.890625 102.8125 C-88.96484375 100.24609375 -88.96484375 100.24609375 -85.890625 98.8125 C-82.71596587 95.10873102 -82.36609706 91.68994508 -82.5390625 86.96484375 C-83.08073856 83.64858256 -84.4151729 82.02033565 -86.890625 79.8125 C-90.88967228 77.47972242 -95.3559758 76.91796959 -99.890625 77.8125 C-102.91034025 79.56315388 -105.30628691 81.64382381 -106.890625 84.8125 C-107.30716799 89.33839985 -107.40135818 93.47891891 -105.765625 97.75 C-103.44896465 100.29832638 -100.97803547 101.34409746 -97.890625 102.8125 C-97.8812793 103.5331665 -97.87193359 104.25383301 -97.86230469 104.99633789 C-97.80832493 108.28989705 -97.72473073 111.58207799 -97.640625 114.875 C-97.62644531 116.00873047 -97.61226563 117.14246094 -97.59765625 118.31054688 C-97.39714358 125.18813131 -96.55303485 129.05728452 -92.890625 134.8125 C-92.5 138.12109375 -92.5 138.12109375 -92.640625 141.25 C-92.67671875 142.30058594 -92.7128125 143.35117187 -92.75 144.43359375 C-92.79640625 145.21863281 -92.8428125 146.00367188 -92.890625 146.8125 C-99.81341524 147.96122565 -107.09040322 148.93647672 -113.890625 146.8125 C-120.66723823 141.6332956 -124.61061387 133.15721854 -128.50390625 125.73828125 C-132.59187684 122.43980417 -137.45840975 123.51850748 -142.515625 123.6875 C-155.87168189 123.61991968 -155.87168189 123.61991968 -161.453125 118.0625 C-165.4334549 112.48130616 -165.3074062 108.28576654 -164.22265625 101.70703125 C-163.62343993 98.60480964 -163.62343993 98.60480964 -165.453125 95.1875 C-168.99832216 91.73320533 -171.98069576 90.09103135 -176.890625 89.375 C-181.7453832 90.08298557 -184.71310204 92.36022169 -187.765625 96.125 C-189.70860903 100.76657296 -189.41259295 104.38395614 -187.703125 109.0625 C-185.55909727 112.31550759 -184.55067604 113.43998086 -180.890625 114.8125 C-179.13905018 114.68698907 -177.38905263 114.53860985 -175.640625 114.375 C-171.7737114 114.23390991 -170.35341347 114.44462473 -167.28125 116.88671875 C-164.43281115 120.07492236 -161.80261715 123.29457992 -159.59790039 126.96411133 C-158.03337704 129.04832922 -158.03337704 129.04832922 -155.50561523 129.15209961 C-154.11644897 129.05940796 -154.11644897 129.05940796 -152.69921875 128.96484375 C-136.26094425 128.40055057 -136.26094425 128.40055057 -131.83398438 131.03759766 C-128.24149554 134.40742037 -126.062354 138.43794325 -123.890625 142.8125 C-122.90033878 144.48495657 -121.90195425 146.15268347 -120.890625 147.8125 C-128.41048994 147.88237387 -135.93032072 147.93549943 -143.45043755 147.96793652 C-146.94331298 147.98351405 -150.43596439 148.00460496 -153.92871094 148.03881836 C-157.95509853 148.07800694 -161.98125515 148.09227447 -166.0078125 148.10546875 C-167.24675262 148.12095261 -168.48569275 148.13643646 -169.76217651 148.15238953 C-178.7548123 148.15411568 -187.21395733 147.27350136 -194.703125 141.875 C-195.43789062 141.34648437 -196.17265625 140.81796875 -196.9296875 140.2734375 C-197.57679688 139.79132813 -198.22390625 139.30921875 -198.890625 138.8125 C-199.7775 138.214375 -200.664375 137.61625 -201.578125 137 C-209.84017158 129.18455053 -215.05974364 117.57667016 -215.453125 106.25 C-214.91415196 94.47769402 -210.35502676 84.33203525 -202.05859375 75.96484375 C-199.46937428 73.66895633 -197.2564433 71.97508591 -194.078125 70.5625 C-190.92049999 68.03639999 -191.08155061 65.43511483 -190.45703125 61.55859375 C-188.59058684 52.50955635 -182.83060558 44.71592587 -175.890625 38.8125 C-168.14192906 33.88290343 -160.49388317 30.62818154 -151.265625 30.6875 C-150.19344727 30.69040039 -150.19344727 30.69040039 -149.09960938 30.69335938 C-143.96729227 30.73523685 -138.97627047 31.08597922 -133.890625 31.8125 C-133.48972656 31.17183594 -133.08882813 30.53117187 -132.67578125 29.87109375 C-126.04784851 19.78641604 -117.77119871 12.86018406 -105.890625 9.8125 C-93.21234039 8.11470699 -82.04766819 10.29510966 -71.64453125 17.95703125 C-69.90910369 18.96891185 -69.90910369 18.96891185 -67.84375 18.76953125 C-64.99765448 17.37494444 -64.41784744 15.52137974 -63.078125 12.6875 C-57.64703944 2.21810065 -49.1299033 -4.26594356 -37.953125 -8.0625 C-24.03810865 -11.75423903 -11.82192125 -7.42533896 0 0 Z " fill="#FEFEFC" transform="translate(326.890625,121.1875)"/>
<path d="M0 0 C2.54685809 0.0785782 3.81954973 0.17584047 6.0625 1.4375 C7.566606 4.25769875 7.51162849 6.16860056 7.0625 9.3125 C5.4375 11.6875 5.4375 11.6875 3.0625 13.3125 C-0.59602292 13.92225382 -2.24262879 13.75793026 -5.375 11.75 C-6.9375 9.3125 -6.9375 9.3125 -6.8125 5.6875 C-5.56526038 0.87671861 -5.01226784 0.39779904 0 0 Z " fill="#FEFCF5" transform="translate(231.9375,204.6875)"/>
<path d="M0 0 C3.375 0.875 3.375 0.875 5.375 2.875 C6.05181895 9.98159898 6.05181895 9.98159898 3.8125 12.9375 C0.3242992 14.27911569 -2.05025344 13.80178615 -5.625 12.875 C-7.95249345 9.38375983 -8.12799316 7.98277749 -7.625 3.875 C-5.30290294 0.25252859 -4.34513693 -0.14983231 0 0 Z " fill="#FEFCF6" transform="translate(280.625,204.125)"/>
<path d="M0 0 C1.9375 1.0625 1.9375 1.0625 3 3 C3.36528977 6.4093712 3.6140629 8.88023824 1.9375 11.9375 C-1.11976176 13.6140629 -3.5906288 13.36528977 -7 13 C-8.9375 11.9375 -8.9375 11.9375 -10 10 C-10.36528977 6.5906288 -10.6140629 4.11976176 -8.9375 1.0625 C-5.88023824 -0.6140629 -3.4093712 -0.36528977 0 0 Z " fill="#FEFDFA" transform="translate(365,217)"/>
<path d="M0 0 C1.9375 1.0625 1.9375 1.0625 3 3 C3.36528977 6.4093712 3.6140629 8.88023824 1.9375 11.9375 C-1.11976176 13.6140629 -3.5906288 13.36528977 -7 13 C-8.9375 11.9375 -8.9375 11.9375 -10 10 C-10.36528977 6.5906288 -10.6140629 4.11976176 -8.9375 1.0625 C-5.88023824 -0.6140629 -3.4093712 -0.36528977 0 0 Z " fill="#FEFDF9" transform="translate(154,217)"/>
</svg>
