<?xml version="1.0" encoding="UTF-8"?>
<svg version="1.1" xmlns="http://www.w3.org/2000/svg" width="512" height="512">
<path d="M0 0 C10.23664297 10.96264602 13.77929311 23.58014374 13.70018005 38.18940735 C13.70825836 39.99543711 13.70825836 39.99543711 13.71649987 41.83795232 C13.72827027 45.15390104 13.72673722 48.46934276 13.71933305 51.78527057 C13.71458205 55.37163066 13.72712831 58.95793808 13.73735046 62.54428101 C13.7545068 69.5604615 13.75538498 76.57655231 13.75013756 83.59274832 C13.74608829 89.29892932 13.74754839 95.00508391 13.75288582 100.71126366 C13.75363424 101.52488693 13.75438266 102.33851019 13.75515376 103.17678871 C13.75668532 104.82993387 13.75822367 106.48307903 13.75976873 108.13622417 C13.77348262 123.62377982 13.76806417 139.11128489 13.75658352 154.59883936 C13.74665493 168.74793128 13.7595873 182.89689236 13.78351771 197.0459641 C13.80793846 211.59526671 13.81750912 226.14450846 13.81086498 240.69383115 C13.80737903 248.85371435 13.80956335 257.013497 13.82711601 265.17336464 C13.84187538 272.12053544 13.84242501 279.0675349 13.8250451 286.01470248 C13.81656279 289.55463057 13.81431688 293.09425307 13.82969666 296.63416481 C13.8462098 300.48281156 13.83132765 304.33099248 13.81370544 308.17964172 C13.82811295 309.83435414 13.82811295 309.83435414 13.84281152 311.52249509 C13.691826 327.63470476 6.95819517 341.86557959 -4.046875 353.48828125 C-17.84254777 365.95744702 -34.05121113 370.89156615 -52.54736328 370.05859375 C-68.59471293 368.68195595 -82.25942742 360.72883646 -93.3125 349.375 C-99.77056423 341.5855339 -104.52023656 331.90179291 -105.6875 321.875 C-106.26434391 318.76004287 -106.68137329 316.67464309 -109.21972656 314.65722656 C-113.21869839 312.28108607 -117.49338201 310.54387553 -121.77441406 308.74707031 C-125.95890168 306.83959331 -129.30979027 303.94133769 -132.6875 300.875 C-133.72970703 299.95267578 -133.72970703 299.95267578 -134.79296875 299.01171875 C-143.78467811 290.59358935 -151.08010234 278.00475971 -151.83276367 265.45239258 C-151.85749045 262.53064483 -151.87315888 259.60936029 -151.875 256.6875 C-151.88724609 255.68396484 -151.89949219 254.68042969 -151.91210938 253.64648438 C-151.92423388 247.43469563 -151.29143057 241.86999275 -149.6875 235.875 C-148.93558022 233.24391496 -148.93558022 233.24391496 -149.6875 230.875 C-151.30577832 229.45900647 -152.93535402 228.05371964 -154.62109375 226.71875 C-165.14421171 217.32950297 -172.50226217 202.00375938 -173.98901367 188.04394531 C-174.12287401 185.18858801 -174.15566636 182.35824979 -174.125 179.5 C-174.11670166 178.49412842 -174.10840332 177.48825684 -174.09985352 176.4519043 C-173.72048309 159.71775345 -166.8421917 146.5639732 -155.3984375 134.43359375 C-151.16042778 130.43374308 -146.53652185 127.09231678 -141.6875 123.875 C-142.03683594 122.92238281 -142.38617188 121.96976563 -142.74609375 120.98828125 C-143.20591666 119.72142221 -143.66554162 118.4544913 -144.125 117.1875 C-144.35509766 116.56166016 -144.58519531 115.93582031 -144.82226562 115.29101562 C-149.91137055 101.20378314 -149.79023324 83.61093249 -143.6875 69.875 C-143.28660156 68.94945312 -142.88570312 68.02390625 -142.47265625 67.0703125 C-135.01307005 51.80518827 -121.44232427 40.75077463 -105.6875 34.875 C-98.56845581 32.60238205 -92.15189902 31.50178005 -84.6875 31.875 C-84.625625 30.6375 -84.56375 29.4 -84.5 28.125 C-83.4166487 18.57044338 -78.98501775 10.02562976 -72.6875 2.875 C-72.16414063 2.27042969 -71.64078125 1.66585937 -71.1015625 1.04296875 C-62.89154658 -7.80303432 -51.94258708 -12.92101493 -39.9375 -14.05859375 C-24.96857614 -14.50038491 -11.18296882 -10.23652602 0 0 Z " fill="#FFF7DA" transform="translate(181.6875,73.125)"/>
<path d="M0 0 C8.00843432 4.64445785 12.51734917 10.65725679 15.375 19.4375 C17.4446744 28.03344695 15.98434989 35.99182867 11.75 43.6875 C7.62339234 50.06771621 1.95287266 54.57119566 -5.296875 56.96875 C-13.84906653 58.69066776 -21.6307174 57.68941157 -29.625 54.4375 C-30.21925781 54.98277344 -30.81351562 55.52804688 -31.42578125 56.08984375 C-35.92228177 60.18075013 -40.46490041 64.17122575 -45.1875 68 C-46.54681641 69.12535156 -46.54681641 69.12535156 -47.93359375 70.2734375 C-49.67164314 71.6709402 -51.45469535 73.0149972 -53.28515625 74.2890625 C-57.28985571 77.27196067 -59.32612712 79.04826676 -60.40234375 84.05078125 C-60.65849881 87.54220975 -60.68206688 90.9405213 -60.625 94.4375 C-59.38411621 94.4060791 -59.38411621 94.4060791 -58.11816406 94.37402344 C-54.3705663 94.29088381 -50.62316251 94.23884469 -46.875 94.1875 C-45.57304687 94.15398437 -44.27109375 94.12046875 -42.9296875 94.0859375 C-41.67929687 94.07304688 -40.42890625 94.06015625 -39.140625 94.046875 C-37.98852539 94.02592773 -36.83642578 94.00498047 -35.64941406 93.98339844 C-32.625 94.4375 -32.625 94.4375 -30.2421875 95.91796875 C-27.90973199 99.55186682 -28.1280784 102.96726492 -28.234375 107.140625 C-28.24003479 107.97841492 -28.24569458 108.81620483 -28.25152588 109.67938232 C-28.27387671 112.34934166 -28.32406902 115.01794787 -28.375 117.6875 C-28.39506675 119.49998059 -28.41331722 121.31248226 -28.4296875 123.125 C-28.47033253 127.5634378 -28.54861975 131.99895857 -28.625 136.4375 C-13.28 135.9425 -13.28 135.9425 2.375 135.4375 C6.43422086 127.52839901 6.43422086 127.52839901 10.48120117 119.61303711 C18.51755983 104.05664672 18.51755983 104.05664672 23.375 102.4375 C24.98524513 102.32278988 26.59955855 102.2612226 28.21362305 102.23217773 C29.68480843 102.2022599 29.68480843 102.2022599 31.18571472 102.17173767 C32.77021172 102.14666893 32.77021172 102.14666893 34.38671875 102.12109375 C35.47008011 102.10031265 36.55344147 102.07953156 37.66963196 102.05812073 C41.13385616 101.99268203 44.5981568 101.93376647 48.0625 101.875 C50.40951315 101.83180939 52.75651853 101.78819493 55.10351562 101.74414062 C60.86059604 101.63700643 66.61775267 101.53522936 72.375 101.4375 C72.69388184 100.76058105 73.01276367 100.08366211 73.34130859 99.38623047 C73.77266113 98.49307129 74.20401367 97.59991211 74.6484375 96.6796875 C75.07044434 95.79651855 75.49245117 94.91334961 75.92724609 94.00341797 C79.86138514 87.03077019 86.12555056 83.47141573 93.5859375 81.09765625 C102.13799418 79.07342995 109.56623652 80.47466943 117.375 84.4375 C123.48768567 88.54381095 128.56543232 94.17015967 130.98828125 101.22265625 C132.36774237 109.12320628 132.87772382 119.47614604 128.375 126.4375 C122.37754561 134.57069384 116.27678411 139.33480453 106.375 141.4375 C96.99484492 142.45744556 88.4296774 140.21993146 81 134.3125 C77.375 130.4375 77.375 130.4375 72.375 120.4375 C58.515 120.4375 44.655 120.4375 30.375 120.4375 C26.60439561 127.69071738 26.60439561 127.69071738 22.83691406 134.94555664 C21.35986359 137.78172294 19.87129669 140.61144303 18.375 143.4375 C17.98634766 144.17597168 17.59769531 144.91444336 17.19726562 145.67529297 C15.48401568 148.82196204 14.41927786 150.40798143 11.375 152.4375 C-1.825 152.4375 -15.025 152.4375 -28.625 152.4375 C-28.625 181.1475 -28.625 209.8575 -28.625 239.4375 C-18.065 239.4375 -7.505 239.4375 3.375 239.4375 C4.365 236.4675 4.365 236.4675 5.375 233.4375 C7.17981773 229.49490619 9.19281895 225.66196912 11.1875 221.8125 C11.96963867 220.25789063 11.96963867 220.25789063 12.76757812 218.671875 C13.54198242 217.17527344 13.54198242 217.17527344 14.33203125 215.6484375 C14.79585205 214.74399902 15.25967285 213.83956055 15.73754883 212.90771484 C17.78445397 209.81980874 19.10945447 208.27196357 22.375 206.4375 C26.18955658 205.8961505 29.9549197 205.97252379 33.80078125 206.046875 C35.45487251 206.05536469 35.45487251 206.05536469 37.14237976 206.06402588 C40.65786492 206.0863825 44.17232387 206.13657979 47.6875 206.1875 C50.07355297 206.20756582 52.45962194 206.22581645 54.84570312 206.2421875 C60.6891511 206.28624499 66.53200223 206.35315082 72.375 206.4375 C72.81972656 205.04337891 72.81972656 205.04337891 73.2734375 203.62109375 C75.89487442 196.04495514 81.39755814 190.11476039 88.4375 186.328125 C96.48303872 183.19273123 105.73923938 183.13400284 113.8125 186.125 C122.06803042 189.97935911 126.25033693 195.51062308 130.375 203.4375 C132.70301163 210.4215349 132.63350587 220.56581903 129.8125 227.4375 C125.78602493 234.82643496 120.49715662 240.78084911 112.375 243.4375 C102.33347445 246.10412919 94.29829122 245.82358147 85.125 240.8125 C77.58995499 235.94315488 74.82813201 231.02346204 72.375 222.4375 C58.515 222.4375 44.655 222.4375 30.375 222.4375 C29.715 224.0875 29.055 225.7375 28.375 227.4375 C26.34953178 231.6650611 24.20144845 235.82893183 22.0625 240 C21.49337891 241.13630859 20.92425781 242.27261719 20.33789062 243.44335938 C19.77650391 244.53583984 19.21511719 245.62832031 18.63671875 246.75390625 C18.13100342 247.74849854 17.62528809 248.74309082 17.10424805 249.76782227 C15.08412842 252.88655841 13.59827214 254.55620312 10.375 256.4375 C7.3557503 256.95722688 4.4113917 256.90438775 1.35546875 256.828125 C0.49689774 256.82246521 -0.36167328 256.81680542 -1.2462616 256.81097412 C-3.9772516 256.78865787 -6.70690939 256.73847167 -9.4375 256.6875 C-11.29360079 256.6674288 -13.14972223 256.64917911 -15.00585938 256.6328125 C-19.54649381 256.59221675 -24.0842633 256.51392194 -28.625 256.4375 C-28.625 265.0175 -28.625 273.5975 -28.625 282.4375 C-25.86769531 282.39109375 -23.11039063 282.3446875 -20.26953125 282.296875 C-17.59205973 282.26565899 -14.91460867 282.24138289 -12.23706055 282.21777344 C-10.37954602 282.19768695 -8.52209449 282.17041222 -6.66479492 282.13574219 C-3.99121537 282.08709263 -1.31847344 282.06450191 1.35546875 282.046875 C2.18273972 282.02622986 3.01001068 282.00558472 3.86235046 281.98431396 C7.65161249 281.98284705 9.85485422 282.14258309 13.203125 284.04101562 C15.75061356 286.85195848 17.48170681 289.79547686 19.14453125 293.171875 C19.74112549 294.33944336 20.33771973 295.50701172 20.95239258 296.70996094 C21.68997803 298.18754883 22.42756348 299.66513672 23.1875 301.1875 C25.559375 305.89 27.93125 310.5925 30.375 315.4375 C44.235 315.7675 58.095 316.0975 72.375 316.4375 C73.035 314.1275 73.695 311.8175 74.375 309.4375 C79.05408733 302.47937444 85.16329182 296.64117603 93.375 294.4375 C103.91814366 293.02810567 112.4603893 294.1218197 121.375 300.4375 C123.86038222 302.550578 125.64603469 304.67802556 127.375 307.4375 C127.78492188 308.05882812 128.19484375 308.68015625 128.6171875 309.3203125 C132.55058982 316.4546905 132.30006499 324.56258775 131.375 332.4375 C130.1787044 336.16351159 128.57340847 339.21316758 126.375 342.4375 C125.776875 343.365625 125.17875 344.29375 124.5625 345.25 C118.15444309 351.65805691 110.60843465 354.71097436 101.5625 354.8125 C92.17944846 354.64476932 86.02363598 351.77633965 79.171875 345.4453125 C76.09017385 342.00184643 72.375 337.23090977 72.375 332.4375 C71.75969925 332.44638245 71.1443985 332.45526489 70.51045227 332.4644165 C64.10284724 332.55295271 57.69541615 332.61326044 51.28735352 332.65722656 C48.89633119 332.67733418 46.50535799 332.7046243 44.11450195 332.73925781 C40.67647169 332.78781151 37.23909196 332.81047774 33.80078125 332.828125 C32.19895744 332.85909271 32.19895744 332.85909271 30.56477356 332.89068604 C23.20830395 332.89290714 23.20830395 332.89290714 19.3828125 330.80224609 C17.0658835 328.07343112 15.45314885 325.40134523 13.82421875 322.2109375 C13.52054886 321.62204742 13.21687897 321.03315735 12.90400696 320.42642212 C12.26934515 319.19038256 11.64019598 317.95149823 11.01635742 316.70996094 C10.05891276 314.80536408 9.08476775 312.91007443 8.10742188 311.015625 C3.375 301.75973516 3.375 301.75973516 3.375 299.4375 C-7.185 299.4375 -17.745 299.4375 -28.625 299.4375 C-28.57859375 304.22765625 -28.5321875 309.0178125 -28.484375 313.953125 C-28.46393609 316.98830293 -28.44468045 320.02339598 -28.4296875 323.05859375 C-28.40577826 327.87599311 -28.37749808 332.69308829 -28.32324219 337.51025391 C-28.2797718 341.39413536 -28.25586046 345.27769062 -28.24549103 349.16179657 C-28.23810169 350.64340093 -28.22367182 352.12498749 -28.20207977 353.60645294 C-28.17302788 355.68236321 -28.16904444 357.75692687 -28.17089844 359.83300781 C-28.16201599 361.01437317 -28.15313354 362.19573853 -28.14398193 363.41290283 C-28.72658683 367.07626859 -29.71280549 368.21237759 -32.625 370.4375 C-35.80287541 371.4967918 -38.05088943 371.55208939 -41.38671875 371.53515625 C-42.50498047 371.53193359 -43.62324219 371.52871094 -44.77539062 371.52539062 C-46.52625977 371.51282227 -46.52625977 371.51282227 -48.3125 371.5 C-49.49134766 371.49548828 -50.67019531 371.49097656 -51.88476562 371.48632812 C-54.79822789 371.47453273 -57.71158863 371.4580727 -60.625 371.4375 C-61.05235222 379.83756122 -61.05235222 379.83756122 -57.49609375 387.2109375 C-54.64065684 389.78611105 -51.69848249 392.12756774 -48.625 394.4375 C-46.72449968 395.9943201 -44.82850303 397.55665762 -42.9375 399.125 C-42.02871094 399.84558594 -41.11992187 400.56617188 -40.18359375 401.30859375 C-37.625 403.4375 -37.625 403.4375 -35.47265625 405.66015625 C-33.5874483 407.59762739 -32.00781279 409.15739736 -29.625 410.4375 C-27.20836424 410.15455416 -25.39191286 409.35472158 -23.171875 408.3671875 C-16.51616502 405.9376492 -8.81972113 406.67260145 -2.25 409.0625 C7.21571193 413.50433893 11.62065903 419.69889069 15.375 429.4375 C17.60176376 437.57173704 15.96084201 445.76534872 12.1875 453.1875 C7.90581077 460.26539444 1.4548293 465.4061946 -6.625 467.4375 C-16.14494544 468.48980802 -24.57131912 468.23551483 -32.625 462.4375 C-35.5 459.9375 -35.5 459.9375 -37.625 457.4375 C-38.676875 456.2928125 -38.676875 456.2928125 -39.75 455.125 C-45.44044741 446.96869204 -45.71978204 438.23076291 -44.16796875 428.6015625 C-43.7143682 426.53262187 -43.17937173 424.48174577 -42.625 422.4375 C-47.61874862 417.85538358 -52.65176318 413.36913574 -57.9375 409.125 C-62.32931238 405.56254275 -66.57261537 401.87168106 -70.75 398.0625 C-71.60331909 397.29425903 -71.60331909 397.29425903 -72.47387695 396.51049805 C-75.57055997 393.65628356 -77.48988601 391.80940434 -77.73852539 387.44458008 C-77.73067017 386.33699341 -77.73067017 386.33699341 -77.72265625 385.20703125 C-77.72015869 384.48362549 -77.71766113 383.76021973 -77.71508789 383.01489258 C-77.70598389 382.10247803 -77.69687988 381.19006348 -77.6875 380.25 C-77.666875 377.341875 -77.64625 374.43375 -77.625 371.4375 C-85.545 371.4375 -93.465 371.4375 -101.625 371.4375 C-101.625 383.3175 -101.625 395.1975 -101.625 407.4375 C-99.975 407.7675 -98.325 408.0975 -96.625 408.4375 C-88.90163698 412.6349799 -83.43218905 419.17188781 -80.625 427.4375 C-78.17770467 436.33675573 -80.02873602 444.85076697 -84.5 452.75 C-90.30059904 460.08605173 -96.38648321 464.55847964 -105.625 466.4375 C-114.99248004 467.49796944 -123.57756372 465.21417396 -131 459.3125 C-137.37865985 453.24818889 -140.69376475 445.08532817 -140.9375 436.375 C-140.85623829 428.7770304 -138.58091175 422.48642126 -134.5 416.125 C-130.193387 412.09925307 -124.72568214 407.4375 -118.625 407.4375 C-118.625 395.5575 -118.625 383.6775 -118.625 371.4375 C-126.91167923 371.55575219 -126.91167923 371.55575219 -135.19775391 371.70776367 C-146.00418808 371.78556197 -146.00418808 371.78556197 -150.625 368.4375 C-152.19435594 365.29878812 -151.97701103 362.89894178 -151.625 359.4375 C-149.975 357.7875 -148.325 356.1375 -146.625 354.4375 C-112.965 354.4375 -79.305 354.4375 -44.625 354.4375 C-44.625 273.9175 -44.625 193.3975 -44.625 110.4375 C-78.615 110.4375 -112.605 110.4375 -147.625 110.4375 C-151.625 106.4375 -151.625 106.4375 -152.15625 104.4375 C-152.1459375 103.7775 -152.135625 103.1175 -152.125 102.4375 C-152.14046875 101.4475 -152.14046875 101.4475 -152.15625 100.4375 C-151.3688661 97.47323119 -150.01333367 96.33742188 -147.625 94.4375 C-144.50878906 93.98339844 -144.50878906 93.98339844 -140.890625 94.046875 C-139.72305664 94.05686523 -138.55548828 94.06685547 -137.35253906 94.07714844 C-135.13615723 94.13177246 -135.13615723 94.13177246 -132.875 94.1875 C-128.1725 94.27 -123.47 94.3525 -118.625 94.4375 C-118.625 82.2275 -118.625 70.0175 -118.625 57.4375 C-120.275 57.1075 -121.925 56.7775 -123.625 56.4375 C-131.85849982 52.42814357 -136.59104011 46.42994701 -140 38.0625 C-141.75096646 27.90689454 -140.8140674 18.96000017 -135.15234375 10.14453125 C-130.24356401 3.95923669 -123.39750559 -0.0507553 -115.625 -1.5625 C-105.99048198 -2.44143849 -97.04624185 -0.6265394 -89.4453125 5.57421875 C-83.04188517 12.12879995 -80.14423628 19.82974821 -79.3125 28.8125 C-80.24504448 39.63001597 -84.50843611 46.88329225 -92.625 53.921875 C-95.71537136 56.26379705 -97.70419931 57.4375 -101.625 57.4375 C-101.625 69.6475 -101.625 81.8575 -101.625 94.4375 C-93.705 94.4375 -85.785 94.4375 -77.625 94.4375 C-77.74316458 88.40937209 -77.74316458 88.40937209 -77.89526367 82.38208008 C-77.9430243 77.54387705 -77.83212158 74.30352706 -74.625 70.4375 C-72.66125804 68.44028516 -70.70465363 66.55345108 -68.625 64.6875 C-68.05048096 64.16454346 -67.47596191 63.64158691 -66.8840332 63.1027832 C-62.42692366 59.07829535 -57.82973142 55.2458839 -53.1484375 51.484375 C-49.55271407 48.56772009 -46.08113399 45.5173214 -42.625 42.4375 C-43.12 40.6121875 -43.12 40.6121875 -43.625 38.75 C-46.10756192 27.30862767 -45.06287694 17.66959576 -38.9375 7.6875 C-28.26519058 -2.69636863 -13.80611515 -6.47971612 0 0 Z " fill="#FFC152" transform="translate(372.625,23.5625)"/>
<path d="M0 0 C10.23664297 10.96264602 13.77929311 23.58014374 13.70018005 38.18940735 C13.70825836 39.99543711 13.70825836 39.99543711 13.71649987 41.83795232 C13.72827027 45.15390104 13.72673722 48.46934276 13.71933305 51.78527057 C13.71458205 55.37163066 13.72712831 58.95793808 13.73735046 62.54428101 C13.7545068 69.5604615 13.75538498 76.57655231 13.75013756 83.59274832 C13.74608829 89.29892932 13.74754839 95.00508391 13.75288582 100.71126366 C13.75363424 101.52488693 13.75438266 102.33851019 13.75515376 103.17678871 C13.75668532 104.82993387 13.75822367 106.48307903 13.75976873 108.13622417 C13.77348262 123.62377982 13.76806417 139.11128489 13.75658352 154.59883936 C13.74665493 168.74793128 13.7595873 182.89689236 13.78351771 197.0459641 C13.80793846 211.59526671 13.81750912 226.14450846 13.81086498 240.69383115 C13.80737903 248.85371435 13.80956335 257.013497 13.82711601 265.17336464 C13.84187538 272.12053544 13.84242501 279.0675349 13.8250451 286.01470248 C13.81656279 289.55463057 13.81431688 293.09425307 13.82969666 296.63416481 C13.8462098 300.48281156 13.83132765 304.33099248 13.81370544 308.17964172 C13.82811295 309.83435414 13.82811295 309.83435414 13.84281152 311.52249509 C13.691826 327.63470476 6.95819517 341.86557959 -4.046875 353.48828125 C-17.84254777 365.95744702 -34.05121113 370.89156615 -52.54736328 370.05859375 C-68.59471293 368.68195595 -82.25942742 360.72883646 -93.3125 349.375 C-99.77056423 341.5855339 -104.52023656 331.90179291 -105.6875 321.875 C-106.26434391 318.76004287 -106.68137329 316.67464309 -109.21972656 314.65722656 C-113.21869839 312.28108607 -117.49338201 310.54387553 -121.77441406 308.74707031 C-125.95890168 306.83959331 -129.30979027 303.94133769 -132.6875 300.875 C-133.72970703 299.95267578 -133.72970703 299.95267578 -134.79296875 299.01171875 C-143.78467811 290.59358935 -151.08010234 278.00475971 -151.83276367 265.45239258 C-151.85749045 262.53064483 -151.87315888 259.60936029 -151.875 256.6875 C-151.88724609 255.68396484 -151.89949219 254.68042969 -151.91210938 253.64648438 C-151.92423388 247.43469563 -151.29143057 241.86999275 -149.6875 235.875 C-148.93558022 233.24391496 -148.93558022 233.24391496 -149.6875 230.875 C-151.30577832 229.45900647 -152.93535402 228.05371964 -154.62109375 226.71875 C-165.14421171 217.32950297 -172.50226217 202.00375938 -173.98901367 188.04394531 C-174.12287401 185.18858801 -174.15566636 182.35824979 -174.125 179.5 C-174.11670166 178.49412842 -174.10840332 177.48825684 -174.09985352 176.4519043 C-173.72048309 159.71775345 -166.8421917 146.5639732 -155.3984375 134.43359375 C-151.16042778 130.43374308 -146.53652185 127.09231678 -141.6875 123.875 C-142.03683594 122.92238281 -142.38617188 121.96976563 -142.74609375 120.98828125 C-143.20591666 119.72142221 -143.66554162 118.4544913 -144.125 117.1875 C-144.35509766 116.56166016 -144.58519531 115.93582031 -144.82226562 115.29101562 C-149.91137055 101.20378314 -149.79023324 83.61093249 -143.6875 69.875 C-143.28660156 68.94945312 -142.88570312 68.02390625 -142.47265625 67.0703125 C-135.01307005 51.80518827 -121.44232427 40.75077463 -105.6875 34.875 C-98.56845581 32.60238205 -92.15189902 31.50178005 -84.6875 31.875 C-84.625625 30.6375 -84.56375 29.4 -84.5 28.125 C-83.4166487 18.57044338 -78.98501775 10.02562976 -72.6875 2.875 C-72.16414063 2.27042969 -71.64078125 1.66585937 -71.1015625 1.04296875 C-62.89154658 -7.80303432 -51.94258708 -12.92101493 -39.9375 -14.05859375 C-24.96857614 -14.50038491 -11.18296882 -10.23652602 0 0 Z M-54.6875 7.875 C-55.76 8.596875 -56.8325 9.31875 -57.9375 10.0625 C-63.56119207 15.81400325 -68.4556992 23.5435816 -68.8125 31.75 C-68.77125 32.45125 -68.73 33.1525 -68.6875 33.875 C-66.83007024 34.56293695 -64.97233888 35.25006812 -63.11328125 35.93359375 C-61.42561241 36.58855058 -59.7567428 37.29320709 -58.10546875 38.03515625 C-56.81576172 38.60556641 -56.81576172 38.60556641 -55.5 39.1875 C-54.70207031 39.55488281 -53.90414062 39.92226562 -53.08203125 40.30078125 C-49.91114563 41.06117307 -48.53747927 40.3864906 -45.6875 38.875 C-39.68171873 34.69756833 -35.14523923 29.30587107 -31.6875 22.875 C-31.6875 22.215 -31.6875 21.555 -31.6875 20.875 C-23.68908983 19.30266296 -23.68908983 19.30266296 -20.0625 21.375 C-18.5774299 24.07512746 -18.23983768 25.72774521 -18.890625 28.75390625 C-22.03698655 37.12878038 -27.65942652 43.52636226 -34.6875 48.875 C-33.35463024 51.88533512 -31.94330686 53.75138334 -29.5 55.9375 C-24.75407851 60.59349876 -19.27100882 66.47733596 -18.3671875 73.2890625 C-18.5625 75.4375 -18.5625 75.4375 -19.6875 78.875 C-23.18315336 81.20543558 -24.5740729 81.46263244 -28.6875 80.875 C-30.6875 78.875 -30.6875 78.875 -32.6875 75.875 C-43.52036435 60.57194765 -55.80497616 52.77367554 -74.05859375 48.29296875 C-84.57074045 46.62164676 -95.11046813 47.03369728 -104.6875 51.875 C-105.96173828 52.51115234 -105.96173828 52.51115234 -107.26171875 53.16015625 C-118.81112098 59.50967447 -125.82989835 68.56354774 -130.8203125 80.609375 C-133.96979023 92.46957043 -132.64954469 106.20687435 -126.6875 116.875 C-121.62292706 125.01173775 -113.92288243 133.73628462 -104.6875 136.875 C-103.11516296 144.87341017 -103.11516296 144.87341017 -105.1875 148.5 C-107.86126359 149.97056997 -109.54507597 150.37276576 -112.5546875 149.75390625 C-118.26669472 147.40005712 -123.6681976 143.12919311 -127.76953125 138.55078125 C-129.51240185 136.64392195 -129.51240185 136.64392195 -131.671875 136.9375 C-143.78002907 142.56919957 -151.5536444 154.04403866 -156.6875 165.875 C-160.17184077 176.32802231 -158.46765472 189.78079151 -154.30078125 199.7578125 C-147.06926107 213.7305803 -136.65767513 222.88494162 -121.6875 227.875 C-110.06786058 228.95354719 -98.94221923 228.93945506 -88.6875 222.875 C-87.74777344 222.32070313 -86.80804688 221.76640625 -85.83984375 221.1953125 C-82.31541245 219.01375255 -78.88863826 216.71494188 -75.4921875 214.33984375 C-65.96796307 207.75020508 -55.89276383 202.82156938 -44.6875 199.875 C-43.615 199.483125 -42.5425 199.09125 -41.4375 198.6875 C-38.28095413 197.75488417 -35.95871717 197.4483195 -32.6875 197.875 C-30.3125 199.5 -30.3125 199.5 -28.6875 201.875 C-28.1875 204.875 -28.1875 204.875 -28.6875 207.875 C-31.68517936 211.70060985 -34.23362397 212.52785645 -38.9375 213.375 C-44.48220527 214.50644493 -48.78251265 216.08588954 -53.6875 218.875 C-52.31351724 222.07865829 -50.86336219 223.75069479 -48.125 225.875 C-41.94482639 231.08351926 -33.25594374 240.04845168 -32.4375 248.4375 C-32.6875 250.875 -32.6875 250.875 -34.6875 253.875 C-36.52734375 254.421875 -36.52734375 254.421875 -38.625 254.625 C-39.31464844 254.70234375 -40.00429687 254.7796875 -40.71484375 254.859375 C-42.6875 254.875 -42.6875 254.875 -45.6875 253.875 C-46.39046598 252.22331569 -47.05145287 250.55359056 -47.6875 248.875 C-52.80010878 241.41011112 -60.06028484 232.37251966 -68.6875 228.875 C-72.25033102 230.02907317 -75.23038386 231.74368293 -78.375 233.75 C-88.91780766 240.16328062 -99.67763772 243.26865995 -112 243.1875 C-113.23133667 243.18556641 -113.23133667 243.18556641 -114.48754883 243.18359375 C-121.18065759 243.07855232 -127.32418311 242.00880686 -133.6875 239.875 C-137.95106706 248.02694022 -136.70343801 260.63945581 -135 269.41796875 C-132.99166522 275.3509244 -129.81500385 280.20047757 -125.6875 284.875 C-125.16285156 285.48085938 -124.63820312 286.08671875 -124.09765625 286.7109375 C-119.75186605 291.39416552 -114.61927881 295.41087748 -108.6875 297.875 C-106.48939178 298.11716292 -106.48939178 298.11716292 -104.6875 296.875 C-103.33853425 294.01469264 -103.33853425 294.01469264 -102.375 290.5 C-98.06893115 277.25900727 -90.13476603 266.44374757 -78.0625 259.25 C-74.79775038 257.59702018 -72.30844592 256.45257909 -68.625 256.8125 C-65.6875 257.875 -65.6875 257.875 -63.6875 260.875 C-63.25105633 264.29380878 -63.130516 266.109147 -65.1875 268.9375 C-67.25695394 270.5413268 -69.26199044 271.84903991 -71.5 273.1875 C-81.59265905 279.42999653 -86.98340147 288.7627044 -90.6875 299.875 C-92.08141336 313.45065742 -90.57895388 325.43926221 -82.4375 336.75 C-75.08026717 345.40743346 -65.08121697 352.14386161 -53.6875 353.875 C-39.75295226 354.92666398 -27.25554729 351.78817092 -16.5625 342.75 C-8.13324409 334.85161889 -2.76757927 324.99167606 -2.31315708 313.31688404 C-2.23182009 309.62367618 -2.21675856 305.93227561 -2.21875 302.23828125 C-2.21163759 300.62883747 -2.20393703 299.01939619 -2.19567871 297.40995789 C-2.18229344 294.05212326 -2.18063995 290.69452362 -2.18652344 287.33666992 C-2.19243854 283.04251071 -2.16172683 278.74947471 -2.12140656 274.45553303 C-2.09552278 271.13799507 -2.09265224 267.82072826 -2.09629822 264.50310326 C-2.09461009 262.91990505 -2.08499707 261.33669391 -2.06715393 259.75359535 C-2.04492941 257.539801 -2.05467713 255.32829077 -2.07226562 253.11450195 C-2.07021118 251.85813431 -2.06815674 250.60176666 -2.06604004 249.30732727 C-2.89313982 244.73925001 -4.43865812 243.15033476 -7.6875 239.875 C-10.49166827 238.00733057 -10.49166827 238.00733057 -13.4375 236.625 C-18.59497331 234.06005338 -18.59497331 234.06005338 -19.6875 231.875 C-20.12786697 226.70068807 -20.12786697 226.70068807 -18.6875 224 C-15.50633611 222.21059531 -12.20755033 222.40031721 -8.6875 222.875 C-6.68226127 223.52573965 -4.68163814 224.19099888 -2.6875 224.875 C-2.57153807 216.61688052 -2.48275146 208.35910241 -2.42843914 200.10036945 C-2.4023688 196.26526907 -2.36701966 192.43072657 -2.31030273 188.59594727 C-2.25588836 184.89358748 -2.22606017 181.19176351 -2.21311378 177.48903465 C-2.20389053 176.07800042 -2.18587884 174.66699482 -2.15884972 173.25618935 C-2.12244595 171.27696067 -2.12045667 169.2971903 -2.11987305 167.31762695 C-2.10321846 165.62885185 -2.10321846 165.62885185 -2.08622742 163.90596008 C-2.88069978 159.90109758 -4.58158569 158.43409677 -7.6875 155.875 C-14.8865993 152.67540031 -22.76573197 152.73888008 -30.5 152.91796875 C-32.16925908 152.94034779 -33.83853074 152.96180419 -35.5078125 152.98242188 C-38.10159111 153.0194969 -40.69471121 153.06266451 -43.28808594 153.12182617 C-45.81715164 153.17664973 -48.34548586 153.205485 -50.875 153.23046875 C-51.63981689 153.25425095 -52.40463379 153.27803314 -53.19262695 153.30253601 C-58.9391736 153.33015758 -62.76235254 151.72067816 -67.6875 148.875 C-68.75907349 148.36932747 -68.75907349 148.36932747 -69.85229492 147.85343933 C-72.27467554 146.56194744 -72.63651749 145.38859984 -73.6875 142.875 C-74.161875 141.94945312 -74.63625 141.02390625 -75.125 140.0703125 C-75.640625 139.05710938 -76.15625 138.04390625 -76.6875 137 C-77.203125 135.99195313 -77.71875 134.98390625 -78.25 133.9453125 C-80.75451326 128.59599886 -82.37253836 124.70782511 -80.6875 118.875 C-79.4296875 117.1796875 -79.4296875 117.1796875 -77.6875 115.875 C-75.42578125 115.80078125 -75.42578125 115.80078125 -73 116.1875 C-72.19175781 116.30738281 -71.38351563 116.42726563 -70.55078125 116.55078125 C-69.93589844 116.65777344 -69.32101563 116.76476562 -68.6875 116.875 C-68.54054688 117.48085937 -68.39359375 118.08671875 -68.2421875 118.7109375 C-66.44267644 125.43324894 -63.7863634 131.22336384 -59.6875 136.875 C-56.39236465 138.52256767 -52.71875686 138.07568259 -49.09375 138.12109375 C-47.32291238 138.15406764 -45.55207917 138.18727861 -43.78125 138.22070312 C-40.99482652 138.2678437 -38.2084161 138.31220273 -35.421875 138.35180664 C-32.72896499 138.39195985 -30.03644061 138.44343143 -27.34375 138.49609375 C-26.52668579 138.5045079 -25.70962158 138.51292206 -24.86779785 138.52159119 C-19.74833693 138.62894499 -15.01318953 139.28975616 -10.02380371 140.45082092 C-7.53077932 140.90345419 -5.21600159 140.90347669 -2.6875 140.875 C-2.54688279 126.21864409 -2.44131151 111.56237835 -2.37662697 96.90548325 C-2.34578454 90.0988678 -2.30379096 83.29267326 -2.23486328 76.48632812 C-2.16831395 69.91166027 -2.13374276 63.33726448 -2.11823654 56.7622757 C-2.10719321 54.26014598 -2.08562828 51.75803878 -2.05311966 49.25609589 C-1.44658852 29.33371075 -1.44658852 29.33371075 -10.86685181 12.45159912 C-18.2008008 5.09657276 -26.0109047 2.51091091 -36.1875 2.3125 C-43.35556079 2.36651291 -48.72865261 3.69335271 -54.6875 7.875 Z " fill="#FFC153" transform="translate(181.6875,73.125)"/>
<path d="M0 0 C0.8119986 -0.0071553 1.62399719 -0.01431061 2.46060181 -0.02168274 C5.13707226 -0.03855225 7.81186351 -0.01917846 10.48828125 0.00219727 C12.35245909 0.0013684 14.21663686 -0.00109164 16.08081055 -0.00511169 C19.98476196 -0.00796849 23.88813928 0.00671985 27.79199219 0.03417969 C32.79247563 0.06826233 37.79193263 0.06224318 42.79246521 0.04351711 C46.64099663 0.03294115 50.4892898 0.04189035 54.33779907 0.05690193 C56.18135877 0.06207983 58.02494338 0.0616067 59.86849976 0.05535698 C62.44673024 0.04989751 65.02349868 0.07030215 67.6015625 0.09765625 C68.36119293 0.09113037 69.12082336 0.08460449 69.9034729 0.07788086 C74.81121707 0.16628 77.36085675 1.1213574 80.80078125 4.63110352 C82.35794188 7.74542477 81.94505594 11.05010695 81.94122314 14.46870422 C81.94419427 15.28767927 81.94716539 16.10665431 81.95022655 16.95044678 C81.95893749 19.71030154 81.96042381 22.47011304 81.96191406 25.22998047 C81.96654055 27.20243422 81.97156498 29.17488707 81.97695923 31.14733887 C81.99010171 36.51721927 81.9965318 41.88708716 82.00096989 47.25698113 C82.00389768 50.60957207 82.00800193 53.96215956 82.01247406 57.31474876 C82.02615395 67.79751708 82.03581816 78.28027756 82.03967595 88.76305419 C82.04415785 100.87627193 82.06170984 112.9893769 82.09067655 125.10256034 C82.11227234 134.4571685 82.12237911 143.81174489 82.12371707 153.16637772 C82.12476662 158.75736361 82.13070626 164.34824355 82.14853668 169.93920326 C82.16498099 175.19801258 82.16719058 180.45663591 82.15839767 185.71546173 C82.15762534 187.64682449 82.16199575 189.57819709 82.17185593 191.50953484 C82.18451859 194.14409699 82.17872969 196.77799478 82.16827393 199.41255188 C82.18035853 200.56178012 82.18035853 200.56178012 82.19268727 201.73422509 C82.15116271 206.20111585 81.57419958 209.08417506 78.80078125 212.63110352 C75.63387696 214.21455566 72.22132151 213.7962756 68.74267578 213.80810547 C67.91000183 213.81467667 67.07732788 213.82124786 66.21942139 213.82801819 C63.45747799 213.84776699 60.69558895 213.85941635 57.93359375 213.86938477 C56.99162014 213.87346029 56.04964653 213.87753582 55.07912827 213.88173485 C50.09490934 213.90260083 45.11071801 213.91690112 40.12646484 213.92626953 C34.97235068 213.93734425 29.81866704 213.97175484 24.66470528 214.01144123 C20.7064838 214.03755358 16.74836581 214.04595649 12.79006577 214.04955101 C10.88982099 214.05442973 8.98958122 214.06608011 7.08942032 214.084589 C4.43182222 214.10886976 1.77535023 214.10803609 -0.88232422 214.10107422 C-2.0622847 214.12028931 -2.0622847 214.12028931 -3.26608276 214.13989258 C-6.83864391 214.10573348 -8.80823993 213.93053597 -11.68582153 211.72673035 C-13.3249682 209.45697612 -13.74245337 208.39811938 -13.69921875 205.63110352 C-13.7146875 204.64110352 -13.7146875 204.64110352 -13.73046875 203.63110352 C-13.19921875 201.63110352 -13.19921875 201.63110352 -9.19921875 197.63110352 C15.22078125 197.63110352 39.64078125 197.63110352 64.80078125 197.63110352 C64.80078125 138.23110352 64.80078125 78.83110352 64.80078125 17.63110352 C41.04078125 17.63110352 17.28078125 17.63110352 -7.19921875 17.63110352 C-12.19921875 14.63110352 -12.19921875 14.63110352 -13.19921875 12.63110352 C-13.6760638 8.41897221 -13.7657195 6.38917309 -11.18823242 2.94007874 C-7.43407814 0.04004208 -4.55615461 -0.07012814 0 0 Z " fill="#FFC052" transform="translate(234.19921875,147.368896484375)"/>
<path d="M0 0 C2.4375 1.625 2.4375 1.625 4 4 C4.76981916 9.53158718 2.64878052 12.53357026 -0.5 16.8125 C-3.73779204 21.52156459 -6.2122618 25.16678288 -5.49609375 31.10546875 C-4.00950402 36.78260278 -1.69411082 39.62175852 3 43 C6.38713923 44.84652722 9.88730703 46.45466268 13.38085938 48.08789062 C14.42016602 48.58772461 14.42016602 48.58772461 15.48046875 49.09765625 C16.10848389 49.39164307 16.73649902 49.68562988 17.38354492 49.98852539 C19 51 19 51 21 54 C21.61703539 58.05480401 21.32038101 59.54369977 18.9375 62.9375 C16 65 16 65 12.8125 64.85546875 C8.49921981 63.88763231 4.97353163 62.38673573 1.0625 60.375 C0.3602832 60.01744629 -0.34193359 59.65989258 -1.06542969 59.29150391 C-10.24827013 54.46976627 -17.01807945 48.61062516 -20.75 38.6875 C-23.21292714 30.5950251 -22.58256409 22.6723939 -19 15 C-9.37304439 -0.80802107 -9.37304439 -0.80802107 0 0 Z " fill="#FFC254" transform="translate(65,224)"/>
<path d="M0 0 C2.1875 1.55859375 2.1875 1.55859375 4 4 C4.40843218 6.69385051 4.57302281 8.88048533 4.5 11.5625 C4.47969727 12.6299646 4.47969727 12.6299646 4.45898438 13.71899414 C4.07566277 23.59509691 1.0334448 30.95844965 -5.8515625 38.125 C-8.98091123 40.85606798 -12.13874055 42.53174798 -16 44 C-16.94875 44.4125 -17.8975 44.825 -18.875 45.25 C-28.4984569 47.55962965 -36.15608652 45.41712804 -44.55859375 40.50390625 C-48.14140723 38.20517312 -50.61234253 36.58148621 -53 33 C-53.4375 30.625 -53.4375 30.625 -53 28 C-50.9375 25.125 -50.9375 25.125 -48 23 C-43.37544564 22.82213252 -40.46404962 24.22830433 -36.625 26.5625 C-31.98881192 29.28734649 -28.2962276 29.8993594 -23 29 C-17.78559576 27.22907026 -15.67379331 24.75341032 -13 20 C-11.5882648 15.76479441 -11.72081223 11.57220525 -11.57421875 7.12890625 C-10.34778591 0.44609876 -6.33182938 -0.90454705 0 0 Z " fill="#FFC254" transform="translate(160,363)"/>
<path d="M0 0 C0.75539062 -0.02900391 1.51078125 -0.05800781 2.2890625 -0.08789062 C6.19847239 -0.13231574 8.17427757 0.03850821 11.59375 2.1171875 C14.43070041 5.18327621 14.77043511 7.16759927 14.625 11.3125 C12.65093718 13.99520075 11.08821776 15.99684164 7.71582031 16.72436523 C4.78600825 16.89196913 1.88339859 16.82830206 -1.04882812 16.76171875 C-6.87494508 16.81350646 -9.2679419 18.15512572 -13.375 22.3125 C-16.07979807 25.87791563 -15.78175988 30.01805434 -15.375 34.3125 C-15.07411922 35.67424492 -14.74083497 37.02924993 -14.375 38.375 C-13.01223683 43.41129868 -12.42653299 47.45508543 -14.875 52.25 C-17.513156 54.4264787 -18.18032848 54.67453509 -21.4375 54.8125 C-25.375 54.3125 -25.375 54.3125 -27.015625 53.20703125 C-32.33446394 45.79428158 -32.46842165 30.91408362 -31.375 22.3125 C-29.00611862 14.62679597 -24.15674399 8.20091994 -17.25390625 4.03125 C-11.46413461 1.05668842 -6.51523499 0.08254098 0 0 Z " fill="#FFC255" transform="translate(102.375,138.6875)"/>
<path d="M0 0 C4.7040711 2.31693054 7.37600111 5.4087656 9.14453125 10.33984375 C10.04080115 15.81704867 8.68747258 19.1790378 5.625 23.60546875 C2.94848857 26.74101249 0.23306666 28.00919385 -3.8046875 28.6484375 C-8.93083814 28.97065268 -11.84790409 27.69501416 -15.85546875 24.33984375 C-19.37007704 20.34046191 -20.22693003 16.74073352 -20.12890625 11.3984375 C-19.58396754 7.2958275 -17.45536068 4.61500514 -14.27734375 2.08203125 C-9.66842318 -0.88677795 -5.3606574 -1.90726547 0 0 Z " fill="#FFF6D8" transform="translate(267.85546875,445.66015625)"/>
<path d="M0 0 C4.84221316 1.65990674 8.11277999 4.41901371 10.41015625 9.00390625 C11.82007595 13.77522392 10.65112968 18.27642145 8.9375 22.8125 C5.59778156 26.58314985 1.75693594 28.76249369 -3.3125 29.19921875 C-9.03981302 28.86061072 -12.11195031 27.17254113 -16 23 C-18.39157082 18.97781271 -18.72035011 14.58322755 -18 10 C-14.2768622 2.55372439 -8.46412891 -1.5880474 0 0 Z " fill="#FFF6D8" transform="translate(266,38)"/>
<path d="M0 0 C4.30543683 2.23551528 7.60229159 4.7579005 10 9 C10.67302515 13.58262071 10.58809792 17.57618398 8.8125 21.875 C4.97494584 26.37420143 1.63694854 28.75123127 -4.3125 29.3125 C-9.49723861 28.87311537 -12.41601755 26.80246279 -15.8125 22.9375 C-18.30909337 18.86411082 -18.62713547 14.65493512 -18 10 C-14.26645869 2.53291738 -8.35924786 -1.65513108 0 0 Z " fill="#FFF7D9" transform="translate(478,120)"/>
<path d="M0 0 C4.01125177 2.04209181 6.63010473 4.1946253 9 8 C9.87141484 13.1970867 9.59466314 17.71918709 7.375 22.5 C3.58820087 26.48610435 0.0631692 28.13827918 -5.375 28.625 C-10.35421351 28.48153114 -12.95583834 26.14893872 -16.46875 22.82421875 C-19.39361149 19.33975366 -19.33777452 15.6304784 -19.28125 11.28515625 C-18.72066644 6.73041482 -16.19916108 4.0580833 -12.875 1.125 C-8.55972739 -0.56358494 -4.57002039 -0.66646131 0 0 Z " fill="#FFF7D9" transform="translate(479,334)"/>
<path d="M0 0 C4.65552557 1.668962 7.62685856 3.6188158 10 8 C10.79839985 13.33624392 10.66939689 17.61162126 8.3125 22.5 C4.43760619 26.68907439 1.76222687 28.17259515 -3.9375 28.4375 C-8.68281634 28.2750859 -11.43861109 27.30079948 -15 24 C-17.81267618 19.96849747 -18.69392905 16.16675866 -18.5625 11.3203125 C-17.49532397 6.91821139 -14.31250745 3.93778941 -11 1 C-7.54155176 -0.72922412 -3.78834735 -0.35136443 0 0 Z " fill="#FFF7D9" transform="translate(362,447)"/>
<path d="M0 0 C4.01125177 2.04209181 6.63010473 4.1946253 9 8 C9.87141484 13.1970867 9.59466314 17.71918709 7.375 22.5 C3.58820087 26.48610435 0.0631692 28.13827918 -5.375 28.625 C-10.35421351 28.48153114 -12.95583834 26.14893872 -16.46875 22.82421875 C-19.39361149 19.33975366 -19.33777452 15.6304784 -19.28125 11.28515625 C-18.72066644 6.73041482 -16.19916108 4.0580833 -12.875 1.125 C-8.55972739 -0.56358494 -4.57002039 -0.66646131 0 0 Z " fill="#FFF7DA" transform="translate(363,37)"/>
<path d="M0 0 C3.37466272 2.40120232 4.82682162 3.46154672 6.25 7.3125 C6.92635093 12.35976882 6.82622855 16.13870111 4.5625 20.75 C0.54457394 25.20229644 -2.21291644 26.50486562 -8.1875 26.8125 C-11.89561016 26.70755349 -14.35869957 26.43129246 -17.3125 24.125 C-21.29504133 19.52976001 -22.32967439 15.60865072 -22.19921875 9.59765625 C-21.3892449 5.47735451 -18.89565457 2.94885812 -15.75 0.3125 C-10.69032684 -2.67140981 -5.19039502 -2.70469951 0 0 Z " fill="#FFF7DA" transform="translate(481.75,225.6875)"/>
</svg>
